<svg width="24" height="24" viewBox="0 0 24 24" fill="none" xmlns="http://www.w3.org/2000/svg">
<path fill-rule="evenodd" clip-rule="evenodd" d="M9.91403 11.999L15.207 17.292C15.3945 17.4795 15.4998 17.7338 15.4998 17.999C15.4998 18.2642 15.3945 18.5185 15.207 18.706C15.0195 18.8935 14.7652 18.9988 14.5 18.9988C14.2349 18.9988 13.9806 18.8935 13.793 18.706L7.79303 12.706C7.60556 12.5185 7.50024 12.2642 7.50024 11.999C7.50024 11.7338 7.60556 11.4795 7.79303 11.292L13.793 5.29199C13.9806 5.10452 14.2349 4.99921 14.5 4.99921C14.7652 4.99921 15.0195 5.10452 15.207 5.29199C15.3945 5.47952 15.4998 5.73383 15.4998 5.99899C15.4998 6.26416 15.3945 6.51847 15.207 6.70599L9.91403 11.999Z" fill="#14171A"/>
</svg>
