<svg width="12" height="12" viewBox="0 0 12 12" fill="none" xmlns="http://www.w3.org/2000/svg">
<path fill-rule="evenodd" clip-rule="evenodd" d="M1.80301 5.80001C1.76833 5.86941 1.75027 5.94593 1.75027 6.02351C1.75027 6.1011 1.76833 6.17761 1.80301 6.24701C2.19184 6.97238 2.70612 7.6231 3.32201 8.16901C4.05368 8.84276 5.00565 9.22704 6.00001 9.25001C6.9945 9.22676 7.94649 8.84213 8.67801 8.16801C9.2939 7.6221 9.80818 6.97138 10.197 6.24601C10.2317 6.17661 10.2497 6.1001 10.2497 6.02251C10.2497 5.94493 10.2317 5.86841 10.197 5.79901C9.80818 5.07365 9.2939 4.42292 8.67801 3.87701C7.94649 3.2029 6.9945 2.81827 6.00001 2.79501C5.00552 2.81827 4.05353 3.2029 3.32201 3.87701C2.70603 4.42322 2.19174 5.07429 1.80301 5.80001ZM9.17651 6.02351C8.86547 5.50427 8.4768 5.03568 8.02401 4.63401C7.47396 4.1173 6.75431 3.81899 6.00001 3.79501C5.24584 3.81872 4.52621 4.11667 3.97601 4.63301C3.5241 5.03486 3.13629 5.50345 2.82601 6.02251C3.13705 6.54176 3.52571 7.01035 3.97851 7.41201C4.52807 7.9278 5.24671 8.22571 6.00001 8.25001C6.75418 8.22631 7.47381 7.92836 8.02401 7.41201C8.4768 7.01035 8.86547 6.54176 9.17651 6.02251V6.02351ZM6.00001 4.50001C5.69889 4.50001 5.40453 4.58931 5.15415 4.7566C4.90378 4.9239 4.70864 5.16168 4.5934 5.43988C4.47817 5.71808 4.44802 6.0242 4.50676 6.31954C4.56551 6.61487 4.71051 6.88616 4.92344 7.09908C5.13636 7.31201 5.40765 7.45701 5.70298 7.51576C5.99832 7.5745 6.30444 7.54435 6.58264 7.42912C6.86084 7.31389 7.09863 7.11874 7.26592 6.86837C7.43321 6.618 7.52251 6.32364 7.52251 6.02251C7.52238 5.61876 7.36193 5.23159 7.07643 4.94609C6.79094 4.66059 6.40376 4.50015 6.00001 4.50001ZM6.00001 5.50001C6.10335 5.50001 6.20437 5.53066 6.29029 5.58807C6.37622 5.64548 6.44319 5.72709 6.48273 5.82256C6.52228 5.91804 6.53263 6.02309 6.51247 6.12445C6.49231 6.2258 6.44254 6.3189 6.36947 6.39198C6.2964 6.46505 6.2033 6.51481 6.10194 6.53497C6.00059 6.55513 5.89553 6.54479 5.80006 6.50524C5.70458 6.46569 5.62298 6.39872 5.56556 6.3128C5.50815 6.22687 5.47751 6.12585 5.47751 6.02251C5.47751 5.88394 5.53256 5.75104 5.63054 5.65305C5.72853 5.55506 5.86143 5.50001 6.00001 5.50001Z" fill="white"/>
</svg>
