<svg width="24" height="24" viewBox="0 0 24 24" fill="none" xmlns="http://www.w3.org/2000/svg">
<path fill-rule="evenodd" clip-rule="evenodd" d="M13.241 7.44298C13.0747 6.68545 13.1843 5.89343 13.5502 5.20957C13.916 4.52571 14.514 3.99495 15.2365 3.71289C15.959 3.43082 16.7584 3.41599 17.4908 3.67107C18.2232 3.92614 18.8405 4.43436 19.2315 5.10418C19.6224 5.774 19.7614 6.56141 19.6233 7.32459C19.4852 8.08776 19.0791 8.77655 18.4782 9.26689C17.8773 9.75723 17.1211 10.0169 16.3457 9.99914C15.5704 9.98137 14.8268 9.68733 14.249 9.16998L10.592 11.305C10.692 11.7622 10.692 12.2357 10.592 12.693L14.252 14.826C14.8069 14.3303 15.5151 14.0401 16.2583 14.0038C17.0014 13.9674 17.7345 14.1872 18.3352 14.6263C18.9358 15.0654 19.3676 15.6974 19.5584 16.4165C19.7491 17.1357 19.6874 17.8985 19.3834 18.5777C19.0794 19.2568 18.5516 19.811 17.8882 20.1478C17.2248 20.4846 16.4658 20.5836 15.7382 20.4282C15.0106 20.2728 14.3583 19.8724 13.8903 19.294C13.4224 18.7155 13.167 17.994 13.167 17.25C13.1668 17.0146 13.1919 16.7799 13.242 16.55L9.58401 14.42C9.11659 14.8383 8.53807 15.1124 7.9183 15.2091C7.29852 15.3058 6.66399 15.2211 6.09133 14.9651C5.51866 14.7091 5.03235 14.2928 4.6911 13.7665C4.34986 13.2401 4.16827 12.6263 4.16827 11.999C4.16827 11.3717 4.34986 10.7578 4.6911 10.2315C5.03235 9.70515 5.51866 9.28885 6.09133 9.03286C6.66399 8.77686 7.29852 8.69211 7.9183 8.78884C8.53807 8.88557 9.11659 9.15965 9.58401 9.57798L13.241 7.44298ZM15.3 16.7C15.1573 16.9899 15.1326 17.3239 15.2313 17.6316C15.33 17.9393 15.5443 18.1967 15.829 18.3496C16.1138 18.5024 16.4467 18.5387 16.7577 18.4509C17.0687 18.363 17.3334 18.1579 17.4961 17.8787C17.6589 17.5995 17.7068 17.268 17.63 16.9542C17.5531 16.6403 17.3574 16.3685 17.084 16.1961C16.8107 16.0237 16.4811 15.9641 16.1647 16.03C15.8484 16.0958 15.5699 16.2819 15.388 16.549C15.376 16.5736 15.363 16.5986 15.349 16.624C15.333 16.65 15.317 16.675 15.3 16.7ZM8.47501 11.334C8.33023 11.1047 8.11489 10.9287 7.86141 10.8325C7.60794 10.7362 7.33005 10.7249 7.06959 10.8003C6.80914 10.8756 6.58021 11.0336 6.4173 11.2503C6.25438 11.467 6.16629 11.7308 6.16629 12.002C6.16629 12.2731 6.25438 12.5369 6.4173 12.7537C6.58021 12.9704 6.80914 13.1283 7.06959 13.2037C7.33005 13.279 7.60794 13.2677 7.86141 13.1715C8.11489 13.0752 8.33023 12.8992 8.47501 12.67L8.49901 12.628C8.50701 12.614 8.51601 12.599 8.52501 12.586C8.62183 12.4046 8.67248 12.2021 8.67248 11.9965C8.67248 11.7908 8.62183 11.5884 8.52501 11.407C8.51701 11.395 8.50901 11.383 8.50201 11.371L8.47501 11.334ZM15.356 7.41098C15.5154 7.66685 15.7619 7.85651 16.0501 7.945C16.3382 8.0335 16.6487 8.01488 16.9242 7.89257C17.1997 7.77025 17.4218 7.55249 17.5494 7.2794C17.6771 7.00631 17.7017 6.69628 17.6188 6.40644C17.536 6.1166 17.3512 5.86648 17.0984 5.70214C16.8457 5.53781 16.5421 5.47035 16.2436 5.51218C15.945 5.554 15.6717 5.70231 15.4738 5.92977C15.276 6.15723 15.167 6.44852 15.167 6.74998C15.1656 6.95955 15.2175 7.16604 15.318 7.34998L15.337 7.38198L15.356 7.41598V7.41098Z" fill="#FFFFFF"/>
</svg>
