<svg width="24" height="24" viewBox="0 0 24 24" fill="none" xmlns="http://www.w3.org/2000/svg">
<path fill-rule="evenodd" clip-rule="evenodd" d="M11.9996 8.89001C11.3846 8.89021 10.7834 9.07278 10.2721 9.41463C9.76077 9.75648 9.36231 10.2423 9.12707 10.8106C8.89184 11.3789 8.83039 12.0041 8.95051 12.6074C9.07062 13.2106 9.3669 13.7646 9.80188 14.1995C10.2369 14.6343 10.791 14.9304 11.3943 15.0503C11.9975 15.1702 12.6228 15.1086 13.191 14.8732C13.7592 14.6378 14.2449 14.2391 14.5866 13.7277C14.9283 13.2163 15.1106 12.6151 15.1106 12C15.1101 11.1752 14.7821 10.3843 14.1988 9.80114C13.6154 9.21799 12.8245 8.89028 11.9996 8.89001ZM11.9996 10.69C12.2588 10.6898 12.5121 10.7665 12.7277 10.9103C12.9433 11.0541 13.1113 11.2587 13.2106 11.498C13.3099 11.7374 13.336 12.0008 13.2856 12.255C13.2351 12.5091 13.1105 12.7427 12.9273 12.926C12.7441 13.1093 12.5107 13.2341 12.2566 13.2848C12.0024 13.3354 11.739 13.3095 11.4995 13.2104C11.2601 13.1113 11.0555 12.9434 10.9115 12.7279C10.7675 12.5125 10.6906 12.2592 10.6906 12C10.6906 11.6528 10.8285 11.3197 11.074 11.0741C11.3194 10.8284 11.6524 10.6903 11.9996 10.69Z" fill="#FFFFFF"/>
<path fill-rule="evenodd" clip-rule="evenodd" d="M9.511 5.73802C9.54686 5.70907 9.57586 5.67253 9.59592 5.63104C9.61598 5.58954 9.62659 5.54411 9.627 5.49802V5.37202C9.627 4.74266 9.87701 4.13908 10.322 3.69406C10.7671 3.24904 11.3706 2.99902 12 2.99902C12.6294 2.99902 13.2329 3.24904 13.678 3.69406C14.123 4.13908 14.373 4.74266 14.373 5.37202V5.43002C14.3743 5.51553 14.4091 5.59713 14.4698 5.65732C14.5306 5.71751 14.6125 5.75151 14.698 5.75202C14.7773 5.75305 14.8541 5.72413 14.913 5.67102C14.913 5.67102 14.957 5.62702 14.953 5.63202C15.3974 5.18633 16.0006 4.93541 16.63 4.93447C16.9416 4.93401 17.2503 4.99493 17.5384 5.11376C17.8265 5.23259 18.0883 5.40699 18.309 5.62702C18.5297 5.84705 18.7049 6.1084 18.8246 6.39613C18.9442 6.68386 19.0061 6.99235 19.0065 7.30399C19.007 7.61562 18.9461 7.92429 18.8273 8.21238C18.7084 8.50047 18.534 8.76234 18.314 8.98302L18.277 9.02002C18.233 9.06514 18.2035 9.12237 18.1923 9.18438C18.181 9.2464 18.1886 9.31035 18.214 9.36802C18.234 9.41356 18.2501 9.46073 18.262 9.50902C18.2911 9.54481 18.3276 9.57382 18.3691 9.59402C18.4105 9.61423 18.4559 9.62515 18.502 9.62602H18.627C19.2564 9.62602 19.8599 9.87603 20.305 10.3211C20.75 10.7661 21 11.3697 21 11.999C21 12.6284 20.75 13.232 20.305 13.677C19.8599 14.122 19.2564 14.372 18.627 14.372H18.567C18.5055 14.3723 18.4453 14.3905 18.394 14.4244C18.3427 14.4583 18.3023 14.5065 18.278 14.563V14.573C18.2528 14.6289 18.2446 14.691 18.2546 14.7515C18.2646 14.812 18.2922 14.8682 18.334 14.913C18.334 14.913 18.378 14.957 18.373 14.953C18.5937 15.1731 18.7689 15.4344 18.8886 15.7221C19.0082 16.0099 19.0701 16.3184 19.0706 16.63C19.071 16.9416 19.0101 17.2503 18.8913 17.5384C18.7724 17.8265 18.598 18.0883 18.378 18.309C18.158 18.5297 17.8966 18.7049 17.6089 18.8246C17.3212 18.9443 17.0127 19.0061 16.701 19.0066C16.0717 19.0075 15.4677 18.7584 15.022 18.314L14.988 18.28C14.9428 18.2366 14.886 18.2071 14.8245 18.1952C14.7629 18.1833 14.6993 18.1895 14.6411 18.2129C14.583 18.2364 14.5329 18.2762 14.4968 18.3275C14.4608 18.3788 14.4404 18.4394 14.438 18.502V18.627C14.438 19.2564 14.188 19.86 13.743 20.305C13.2979 20.75 12.6944 21 12.065 21C11.4356 21 10.8321 20.75 10.387 20.305C9.94201 19.86 9.692 19.2564 9.692 18.627V18.583C9.69048 18.5199 9.67003 18.4587 9.6333 18.4073C9.59656 18.356 9.54525 18.3169 9.486 18.295L9.433 18.273C9.37694 18.2479 9.31471 18.2397 9.25407 18.2497C9.19343 18.2597 9.13707 18.2872 9.092 18.329L9.053 18.368C8.60863 18.8137 8.00541 19.0646 7.37604 19.0656C6.74666 19.0665 6.1427 18.8174 5.697 18.373C5.2513 17.9287 5.00039 17.3254 4.99945 16.6961C4.99851 16.0667 5.24763 15.4627 5.692 15.017L5.727 14.982C5.77135 14.9366 5.80142 14.8792 5.81351 14.8169C5.8256 14.7546 5.81918 14.6901 5.79504 14.6314C5.7709 14.5727 5.73009 14.5223 5.67766 14.4865C5.62523 14.4507 5.56347 14.4311 5.5 14.43H5.373C4.74364 14.43 4.14006 14.18 3.69504 13.735C3.25001 13.29 3 12.6864 3 12.057C3 11.4277 3.25001 10.8241 3.69504 10.3791C4.14006 9.93404 4.74364 9.68402 5.373 9.68402H5.418C5.48112 9.68251 5.54233 9.66205 5.59368 9.62532C5.64504 9.58859 5.68417 9.53727 5.706 9.47802C5.713 9.46002 5.72 9.44302 5.728 9.42502C5.75309 9.36911 5.76115 9.30706 5.75119 9.24659C5.74124 9.18613 5.71369 9.12993 5.672 9.08502L5.641 9.05402C5.19438 8.61058 4.9422 8.00788 4.93995 7.37851C4.9377 6.74914 5.18556 6.14465 5.629 5.69802C6.07244 5.2514 6.67514 4.99922 7.30451 4.99697C7.93389 4.99472 8.53837 5.24258 8.985 5.68602L9.022 5.72302C9.06696 5.76694 9.12402 5.79641 9.18586 5.80764C9.24769 5.81886 9.31148 5.81134 9.369 5.78602C9.41488 5.76601 9.46239 5.74995 9.511 5.73802ZM16.5 9.92302C16.3743 9.55252 16.3536 9.15447 16.4401 8.77291C16.5265 8.39135 16.7169 8.04114 16.99 7.76102L17.046 7.70502C17.0992 7.65177 17.1414 7.58857 17.1701 7.51902C17.1989 7.44947 17.2137 7.37493 17.2136 7.29967C17.2136 7.22441 17.1987 7.14989 17.1698 7.08038C17.141 7.01086 17.0988 6.94771 17.0455 6.89452C16.9922 6.84134 16.929 6.79916 16.8595 6.7704C16.7899 6.74164 16.7154 6.72687 16.6401 6.72691C16.5649 6.72696 16.4904 6.74183 16.4209 6.77067C16.3513 6.79952 16.2882 6.84177 16.235 6.89502L16.175 6.95402C15.8765 7.24257 15.4999 7.43729 15.0919 7.51411C14.6838 7.59092 14.2622 7.54647 13.8792 7.38623C13.4962 7.22599 13.1685 6.95701 12.9367 6.61253C12.7049 6.26806 12.5792 5.8632 12.575 5.44802V5.37202C12.5782 5.29483 12.5658 5.21778 12.5385 5.14551C12.5112 5.07323 12.4695 5.00723 12.416 4.95147C12.3626 4.89571 12.2984 4.85134 12.2273 4.82103C12.1562 4.79072 12.0798 4.77509 12.0025 4.77509C11.9252 4.77509 11.8488 4.79072 11.7777 4.82103C11.7066 4.85134 11.6424 4.89571 11.589 4.95147C11.5355 5.00723 11.4938 5.07323 11.4665 5.14551C11.4392 5.21778 11.4268 5.29483 11.43 5.37202V5.50002C11.4276 5.91228 11.305 6.31489 11.0773 6.65856C10.8497 7.00224 10.5267 7.27207 10.148 7.43502C10.0772 7.46493 10.003 7.48608 9.927 7.49802C9.55649 7.62369 9.15845 7.64444 8.77689 7.55796C8.39533 7.47148 8.04512 7.28115 7.765 7.00802L7.7 6.94402C7.59259 6.83648 7.44685 6.77601 7.29485 6.77591C7.14286 6.77582 6.99705 6.83611 6.8895 6.94352C6.78195 7.05094 6.72148 7.19667 6.72139 7.34867C6.7213 7.50067 6.78159 7.64648 6.889 7.75402L6.954 7.81902C7.23998 8.12239 7.43274 8.50156 7.50934 8.91137C7.58593 9.32119 7.54312 9.74439 7.38602 10.1306C7.22891 10.5167 6.96413 10.8496 6.62319 11.0896C6.28226 11.3295 5.87954 11.4665 5.463 11.484H5.373C5.22103 11.484 5.07529 11.5444 4.96783 11.6519C4.86037 11.7593 4.8 11.9051 4.8 12.057C4.8 12.209 4.86037 12.3547 4.96783 12.4622C5.07529 12.5697 5.22103 12.63 5.373 12.63H5.5C5.91651 12.633 6.32298 12.7583 6.66891 12.9903C7.01484 13.2223 7.28501 13.5508 7.44585 13.935C7.6067 14.3192 7.65114 14.7422 7.57365 15.1515C7.49616 15.5607 7.30017 15.9382 7.01 16.237L6.952 16.295C6.8977 16.3482 6.85459 16.4116 6.82523 16.4817C6.79586 16.5518 6.78082 16.627 6.781 16.703C6.78126 16.8167 6.81533 16.9277 6.87887 17.022C6.94241 17.1163 7.03256 17.1895 7.13784 17.2324C7.24312 17.2753 7.35878 17.2859 7.4701 17.2628C7.58143 17.2398 7.68338 17.1842 7.763 17.103L7.819 17.047C8.12237 16.761 8.50154 16.5683 8.91135 16.4917C9.32117 16.4151 9.74436 16.4579 10.1305 16.615C10.5167 16.7721 10.8496 17.0369 11.0896 17.3778C11.3295 17.7188 11.4664 18.1215 11.484 18.538V18.625C11.484 18.777 11.5444 18.9227 11.6518 19.0302C11.7593 19.1377 11.905 19.198 12.057 19.198C12.209 19.198 12.3547 19.1377 12.4622 19.0302C12.5696 18.9227 12.63 18.777 12.63 18.625V18.491C12.6344 18.076 12.7603 17.6713 12.9921 17.327C13.2239 16.9826 13.5514 16.7137 13.9343 16.5534C14.3172 16.3931 14.7387 16.3485 15.1466 16.425C15.5546 16.5016 15.9312 16.6959 16.23 16.984L16.289 17.044C16.3423 17.0973 16.4055 17.1395 16.475 17.1683C16.5446 17.1972 16.6192 17.212 16.6945 17.212C16.7698 17.212 16.8444 17.1972 16.914 17.1683C16.9835 17.1395 17.0467 17.0973 17.1 17.044C17.1533 16.9908 17.1955 16.9276 17.2243 16.858C17.2531 16.7884 17.268 16.7138 17.268 16.6385C17.268 16.5632 17.2531 16.4886 17.2243 16.4191C17.1955 16.3495 17.1533 16.2863 17.1 16.233L17.044 16.177C16.7539 15.8783 16.558 15.501 16.4804 15.092C16.4029 14.6829 16.4471 14.26 16.6077 13.8759C16.7683 13.4918 17.0382 13.1632 17.3838 12.9311C17.7295 12.6989 18.1357 12.5734 18.552 12.57H18.621C18.773 12.57 18.9187 12.5097 19.0262 12.4022C19.1336 12.2947 19.194 12.149 19.194 11.997C19.194 11.8451 19.1336 11.6993 19.0262 11.5919C18.9187 11.4844 18.773 11.424 18.621 11.424H18.5C18.0877 11.4216 17.6851 11.2991 17.3415 11.0714C16.9978 10.8437 16.728 10.5207 16.565 10.142C16.5351 10.0712 16.5139 9.99698 16.502 9.92102L16.5 9.92302ZM16.627 13.846V13.856V13.846Z" fill="#FFFFFF"/>
</svg>
