<svg width="263" height="148" viewBox="0 0 263 148" fill="none" xmlns="http://www.w3.org/2000/svg">
<g clip-path="url(#clip0_193_5640)">
<path d="M255 0H8C3.58172 0 0 3.58172 0 8V120C0 124.418 3.58172 128 8 128H255C259.418 128 263 124.418 263 120V8C263 3.58172 259.418 0 255 0Z" fill="#484C4E"/>
<path d="M56.2621 74C94.8966 74 126.216 42.6805 126.216 4.04601C126.216 -34.5885 94.8966 -65.908 56.2621 -65.908C17.6276 -65.908 -13.6919 -34.5885 -13.6919 4.04601C-13.6919 42.6805 17.6276 74 56.2621 74Z" fill="#2C2E31"/>
<path d="M108.819 138.481H-8.79883V139.096H108.819V138.481Z" fill="#2C2E31"/>
<path d="M-4.55219 110.544C8.38081 120.211 12.0268 137.195 12.0268 137.195C12.0268 137.195 -5.2942 138.505 -18.2262 128.838C-31.1582 119.171 -34.8052 102.188 -34.8052 102.188C-34.8052 102.188 -17.4842 100.878 -4.55219 110.544Z" fill="#3A3A3A"/>
<path d="M12.0166 137.032C12.0166 137.032 12.2066 136.926 12.5506 136.715C12.8236 136.547 13.2007 136.315 13.6507 136.015C17.7147 133.337 28.2417 125.461 32.5597 113.309C37.9597 98.094 31.5827 81.937 31.5827 81.937C31.5827 81.937 17.6666 89.76 11.7556 103.812C11.4986 104.417 11.2557 105.035 11.0357 105.664C6.33567 118.903 10.5537 132.854 11.7287 136.255C11.9087 136.76 12.0166 137.032 12.0166 137.032Z" fill="#ED2227"/>
<path d="M11.954 137.512L12.154 137.368C12.296 137.268 26.331 126.954 29.937 111.324C33.543 95.694 25.445 80.276 25.363 80.124L25.248 79.908L25.048 80.052C24.907 80.152 10.871 90.466 7.265 106.095C3.658 121.725 11.756 137.144 11.839 137.295L11.954 137.512ZM25.099 80.546C26.072 82.488 32.855 96.776 29.52 111.229C26.185 125.682 13.828 135.553 12.102 136.873C11.129 134.931 4.34601 120.643 7.68101 106.19C11.015 91.739 23.376 81.865 25.099 80.546Z" fill="#3A3A3A"/>
<path opacity="0.1" d="M11.7328 136.25C12.0478 136.434 12.3238 136.588 12.5498 136.714C13.0498 136.986 13.3248 137.123 13.3248 137.123C13.3248 137.123 13.4558 136.73 13.6538 136.01C14.7488 132.073 17.8828 118.349 12.6368 105.745C12.3608 105.085 12.0681 104.439 11.7588 103.807C11.5008 104.407 11.2588 105.03 11.0388 105.659C6.33882 118.898 10.5578 132.849 11.7328 136.25Z" fill="#14171A"/>
<path d="M-9.94895 115.068C-3.74895 129.975 11.825 137.674 11.825 137.674C11.825 137.674 17.3411 121.203 11.1391 106.295C4.93706 91.387 -10.6339 83.69 -10.6339 83.69C-10.6339 83.69 -16.149 100.161 -9.94895 115.068Z" fill="#ED2227"/>
<path d="M-10.7231 84.4372L11.4756 137.324L11.8693 137.159L-10.3294 84.2719L-10.7231 84.4372Z" fill="#3A3A3A"/>
<path d="M53.6866 130.505C53.6866 116.357 42.9866 104.888 29.7776 104.888C16.5686 104.888 5.86865 116.357 5.86865 130.505C5.86865 144.653 16.5686 140.539 29.7776 140.539C42.9866 140.539 53.6866 144.653 53.6866 130.505Z" fill="#333333"/>
<path d="M62.9883 90.7757C62.2995 90.4862 61.5442 90.3919 60.8052 90.5032C60.0663 90.6144 59.3723 90.927 58.7992 91.4066C56.5563 93.0617 45.7171 101.101 45.7171 101.101C45.7171 101.101 44.0239 102.973 44.1504 104.421C44.2769 105.869 47.6161 133.47 47.6161 133.47C47.6161 133.47 48.2292 138.19 57.6079 139.294C66.9866 140.398 72.4656 141.758 80.8869 134.922C80.8869 134.922 85.3579 132.21 85.2942 128.436C85.2305 124.662 84.6985 127.361 80.9301 109.255C80.9301 109.255 80.3902 104.04 80.0058 101.156C79.6214 98.2719 78.6486 97.7618 76.7081 96.8022C74.7676 95.8427 62.9883 90.7757 62.9883 90.7757Z" fill="#ED2227"/>
<path d="M65.9652 119.691C67.1793 119.677 68.3711 120.018 69.393 120.674C70.4149 121.329 71.2222 122.27 71.7149 123.38C72.3835 125.174 71.9432 126.108 72.053 127.365C72.1347 128.301 72.7393 129.478 72.4481 131.28C72.1569 133.081 70.2269 136.068 67.4162 136.314C64.8953 136.534 62.3083 134.285 61.7164 132.782C61.1244 131.279 61.4586 130.015 61.3437 128.7C61.262 127.764 60.6071 127.494 60.6177 124.984C60.6283 122.474 63.1545 119.937 65.9652 119.691Z" fill="#2C2E31"/>
<path fill-rule="evenodd" clip-rule="evenodd" d="M70.1629 135.092C69.3973 135.746 68.4686 136.222 67.4164 136.314C64.8956 136.534 62.3086 134.285 61.7166 132.782C61.3644 131.888 61.3401 131.078 61.3539 130.292C61.8799 130.105 62.4377 129.982 63.0192 129.931C66.3962 129.636 69.4085 131.886 70.1629 135.092Z" fill="white"/>
<path fill-rule="evenodd" clip-rule="evenodd" d="M69.6207 120.827C68.6397 121.577 67.441 122.066 66.1198 122.182C64.7566 122.301 63.4528 122.005 62.333 121.399C63.3076 120.468 64.6031 119.81 65.9655 119.691C67.1796 119.677 68.3713 120.018 69.3932 120.674C69.4703 120.723 69.5461 120.774 69.6207 120.827Z" fill="white"/>
<path fill-rule="evenodd" clip-rule="evenodd" d="M80.784 107.872C79.8413 107.988 78.791 107.991 77.7223 107.994C75.6706 108 73.5514 108.006 71.9978 108.812C70.8554 109.404 70.0032 110.269 69.1693 111.116C67.8013 112.505 66.4825 113.844 64.0127 113.843C63.0475 113.843 61.674 113.433 60.1745 112.985C58.0274 112.343 55.6221 111.624 53.7871 111.922C52.0083 112.211 50.4646 112.91 49.0966 113.53C47.6822 114.17 46.4556 114.726 45.3512 114.655C44.724 109.412 44.1991 104.979 44.1504 104.421C44.0239 102.973 45.7171 101.101 45.7171 101.101C45.7171 101.101 56.5563 93.0616 58.7992 91.4065C59.3723 90.9269 60.0663 90.6143 60.8052 90.5031C61.5442 90.3918 62.2995 90.4861 62.9883 90.7756C62.9883 90.7756 74.7676 95.8425 76.7081 96.8021C78.6486 97.7616 79.6214 98.2718 80.0058 101.156C80.2658 103.106 80.5969 106.123 80.784 107.872Z" fill="#BE1B1F"/>
<path d="M55.3185 120.651C58.4767 121.096 61.4972 118.185 62.0648 114.149C62.6325 110.114 60.5325 106.483 57.3743 106.038C54.216 105.594 51.1956 108.505 50.6279 112.54C50.0602 116.576 52.1602 120.207 55.3185 120.651Z" fill="#2C2E31"/>
<path d="M55.3185 120.009C58.4767 120.453 61.4972 117.542 62.0648 113.507C62.6325 109.472 60.5325 105.84 57.3743 105.396C54.216 104.952 51.1956 107.863 50.6279 111.898C50.0602 115.933 52.1602 119.565 55.3185 120.009Z" fill="white"/>
<path d="M75.0233 119.081C78.0566 118.096 79.4953 114.155 78.2366 110.28C76.9779 106.404 73.4984 104.061 70.4651 105.046C67.4317 106.031 65.993 109.971 67.2518 113.847C68.5105 117.723 71.9899 120.066 75.0233 119.081Z" fill="#2C2E31"/>
<path d="M74.6668 118.44C77.7002 117.455 79.1388 113.514 77.8801 109.638C76.6214 105.763 73.142 103.419 70.1086 104.405C67.0752 105.39 65.6366 109.33 66.8953 113.206C68.154 117.082 71.6335 119.425 74.6668 118.44Z" fill="white"/>
<path d="M44.1393 122.512C45.2934 119.613 55.8145 125.344 56.5029 135.412C56.8583 139.141 57.553 140.561 54.7394 142.015C51.9258 143.469 47.2189 142.509 46.0124 140.268C44.806 138.027 47.2998 135.361 46.8833 132.555C46.4668 129.748 42.9851 125.411 44.1393 122.512Z" fill="white"/>
<path d="M85.0836 118.572C83.1981 116.134 74.7646 124.437 76.8497 134.191C77.5276 137.831 77.2526 139.368 80.3225 139.983C83.3923 140.599 87.6001 138.406 88.1368 135.95C88.6736 133.493 85.5786 131.64 85.2108 128.861C84.843 126.083 86.9679 121.01 85.0836 118.572Z" fill="white"/>
<path d="M233.986 30.811V35.028L225.336 39.377C225.336 39.377 216.747 34.177 218.865 32.113C220.221 30.805 219.96 27.213 219.594 24.741C219.381 23.304 219.133 22.25 219.133 22.25C219.133 22.25 234.562 17.844 232.233 21.189C231.878 21.7846 231.643 22.4446 231.544 23.1311C231.444 23.8176 231.481 24.517 231.653 25.189C232.109 27.1809 232.898 29.0816 233.986 30.811Z" fill="#FFB8B8"/>
<path d="M210.29 72.044L209.175 85.778C209.175 85.778 207.504 84.263 205.341 82.29C201.331 78.633 195.641 73.403 195.705 73.264C195.805 73.05 196.721 60.591 196.82 57.459C196.913 55.236 197.397 53.0468 198.25 50.992C198.665 49.6093 199.004 48.2053 199.267 46.786C199.348 46.41 199.399 46.166 199.399 46.166L201.27 45.414C201.27 45.414 209.07 54.114 209.07 54.271C209.07 54.428 208.538 61.111 208.538 61.111L207.986 61.592L207.745 61.799C207.745 61.799 207.372 64.717 207.108 65.592C206.964 66.4395 206.98 67.3068 207.158 68.148C207.133 68.6047 207.069 69.0584 206.965 69.504C206.921 69.6759 206.861 69.8433 206.785 70.004C206.69 70.3002 206.709 70.6213 206.839 70.904C206.99 71.2969 207.185 71.6711 207.422 72.019L210.29 72.044Z" fill="#2C2E31"/>
<path d="M257.537 73.264C257.618 73.43 249.304 81.019 245.701 84.297L244.067 85.778L242.962 72.044H245.826C245.826 72.044 246.782 70.664 246.463 70.027C246.241 69.4329 246.116 68.8069 246.093 68.173C246.26 67.3249 246.278 66.454 246.144 65.6C245.88 64.722 245.507 61.807 245.507 61.807L245.145 61.495L244.715 61.119C244.715 61.119 244.183 54.438 244.183 54.279C244.183 54.12 251.983 45.422 251.983 45.422L253.841 46.164C253.841 46.164 253.882 46.364 253.949 46.683C254.2 47.839 254.8 50.574 255.007 50.991C255.861 53.0457 256.345 55.235 256.437 57.458C256.52 60.593 257.428 73.051 257.537 73.264Z" fill="#2C2E31"/>
<path d="M252.761 175.773C252.124 177.258 252.761 180.298 252.761 180.298C252.761 180.298 243.27 180.793 240.952 179.237C238.634 177.681 236.993 168.77 236.993 168.77C236.993 168.77 237.332 158.306 236.993 157.812C236.654 157.318 235.367 154.985 235.793 154.49C236.219 153.995 235.454 151.378 234.874 150.246C234.294 149.114 234.535 145.863 234.535 145.863L233.118 137.233L230.928 126.983L229.067 120.122C229.067 120.122 227.159 114.536 226.511 112.205C225.863 109.874 225.179 111.991 225.179 111.991C225.111 114.255 219.879 124.437 219.879 124.437C219.879 124.437 219.1 130.589 218.252 132.779C217.404 134.969 216.482 142.609 216.482 142.609C216.482 142.609 215.126 158.163 214.008 160.78C213.197 162.89 212.565 165.064 212.12 167.28C212.12 167.28 212.405 172.656 211.696 173.08C210.987 173.504 211.103 176.758 211.103 176.758C211.103 176.758 211.527 179.866 209.903 180.364C208.279 180.862 208.547 181.92 208.547 181.92C208.547 181.92 199.497 183.405 198.012 179.442C196.527 175.479 198.578 174.426 198.69 174.142C198.802 173.858 199.931 173.366 198.941 172.23C197.951 171.094 200.212 167.99 200.212 167.99C200.212 167.99 200.568 163.607 201.202 163.465C201.836 163.323 201.629 156.965 201.629 156.965L202.334 150.318C202.334 150.318 203.256 135.469 203.042 134.903C202.842 133.293 203.062 131.658 203.679 130.158C204.387 128.802 204.95 116.437 204.95 116.437C204.95 116.437 204.808 110.36 205.374 109.228C205.713 108.587 205.855 106.123 205.937 104.113C205.999 102.578 206.012 101.307 206.012 101.307L213.93 98.338L224.099 95.087L232.654 99.187L245.172 101.587L245.328 103.746L247.718 136.729L249.074 149.172C249.074 149.172 249.64 155.039 249.711 156.101C249.782 157.163 250.487 164.093 250.487 164.093C250.487 164.093 251.972 167.415 251.053 168.547C250.792 168.809 250.602 169.133 250.503 169.49C250.404 169.846 250.398 170.222 250.487 170.581C250.487 170.581 253.398 174.289 252.761 175.773Z" fill="#2C2E31"/>
<path opacity="0.1" d="M232.237 21.188C231.882 21.7836 231.647 22.4436 231.548 23.1301C231.448 23.8166 231.485 24.516 231.657 25.188C229.876 26.4446 227.731 27.0812 225.553 26.9997C223.375 26.9182 221.284 26.1232 219.601 24.737C219.387 23.3 219.14 22.246 219.14 22.246C219.14 22.246 234.569 17.846 232.237 21.188Z" fill="#14171A"/>
<path d="M235.843 16.862C235.832 19.1464 235.03 21.3564 233.573 23.1161C232.116 24.8758 230.095 26.0765 227.853 26.5139C225.61 26.9513 223.286 26.5985 221.275 25.5154C219.263 24.4323 217.689 22.6859 216.82 20.5732C215.951 18.4605 215.841 16.112 216.508 13.9271C217.175 11.7423 218.579 9.85608 220.48 8.58934C222.381 7.3226 224.662 6.75356 226.936 6.97902C229.209 7.20448 231.334 8.21053 232.949 9.826C233.87 10.751 234.6 11.8486 235.097 13.0559C235.593 14.2632 235.847 15.5565 235.843 16.862Z" fill="#FFB8B8"/>
<path d="M237.911 33.79L234.657 91.734L216.981 88.022L213.481 64.794L216.948 33.614L219.558 33.946L224.158 34.532L228.717 34.813L233.659 34.264L237.911 33.79Z" fill="#ED2227"/>
<path d="M223.381 35.346L229.746 35.56L227.956 38.06C227.956 38.06 228.081 43.121 228.932 44.571C229.783 46.021 229.532 68.433 229.532 68.433L227.837 71.65L224.937 68.044L224.974 38.454L223.381 35.346Z" fill="#3F3D56"/>
<path d="M223.381 35.346L229.746 35.56L227.956 38.06C227.956 38.06 228.081 43.121 228.932 44.571C229.783 46.021 229.532 68.433 229.532 68.433L227.837 71.65L224.937 68.044L224.974 38.454L223.381 35.346Z" fill="#2C2E31"/>
<path opacity="0.1" d="M233.348 28.77L227.41 35.346L230.803 38.881L236.426 33.4L233.348 28.77Z" fill="#14171A"/>
<path d="M233.348 28.346L227.41 34.922L230.803 38.457L236.426 32.976L233.348 28.346Z" fill="#ED2227"/>
<path opacity="0.1" d="M224.903 35.028L218.89 29.018L218.324 32.164L221.083 39.058L224.903 35.028Z" fill="#14171A"/>
<path d="M225.113 34.604L219.103 28.594L218.537 31.739L221.296 38.633L225.113 34.604Z" fill="#ED2227"/>
<path opacity="0.1" d="M245.352 103.759C242.466 105.134 239.375 106.028 236.2 106.406C230.366 107.148 226.55 99.725 226.55 99.725L224.323 102.625C223.615 105.703 212.833 106.479 208.45 105.313C207.541 105.089 206.685 104.684 205.935 104.124C205.996 102.588 206.009 101.317 206.009 101.317L213.927 98.348L224.096 95.097L232.651 99.197L245.169 101.597L245.352 103.759Z" fill="#14171A"/>
<path opacity="0.1" d="M237.911 33.794L234.661 91.734L216.981 88.023L213.473 64.797L216.937 33.614L219.547 33.953C219.48 35.0887 219.352 36.22 219.164 37.342C218.74 39.325 221.357 53.395 221.357 53.395C221.357 53.395 226.329 69.173 228.566 66.895C230.803 64.617 233.989 52.612 233.989 52.612C236.148 48.158 234.026 35.665 233.867 35.412C233.757 35.0425 233.69 34.6617 233.667 34.277L237.911 33.794Z" fill="#14171A"/>
<path opacity="0.1" d="M245.548 78.63L245.697 84.308L244.063 85.789L242.962 72.044H245.402L245.548 78.63Z" fill="#14171A"/>
<path opacity="0.1" d="M207.159 68.156C207.134 68.6128 207.07 69.0665 206.966 69.512C206.966 69.387 206.966 69.312 206.939 69.305C206.837 69.278 206.959 68.756 207.159 68.156Z" fill="#14171A"/>
<path opacity="0.1" d="M210.291 72.049L209.176 85.783C209.176 85.783 207.505 84.268 205.342 82.295L205.6 79.861C205.6 79.861 206.512 73.882 206.844 70.933C206.995 71.326 207.19 71.7002 207.427 72.048L210.291 72.049Z" fill="#14171A"/>
<path d="M219.879 28.804C219.879 28.804 218.821 27.248 217.371 30.251C215.756 31.2205 214.054 32.0373 212.287 32.691C210.987 32.938 206.356 34.565 206.356 34.565C205.657 35.0694 204.818 35.3409 203.956 35.341C202.505 35.341 201.302 38.524 201.479 40.256C201.656 41.988 201.374 43.262 200.031 43.334C198.688 43.406 199.431 46.195 199.431 46.195L208.369 56.449C208.369 56.449 208.935 65.889 208.654 66.174C208.373 66.459 207.346 69.225 207.593 69.319C207.84 69.413 206.237 79.854 206.237 79.854L204.081 100.113C204.081 100.113 204.081 103.503 208.467 104.672C212.853 105.841 223.642 105.072 224.337 101.991L226.564 99.091C226.564 99.091 230.381 106.517 236.214 105.775C239.542 105.398 242.776 104.428 245.762 102.911L245.125 78.632L244.701 61.132L253.808 46.167C253.808 46.167 251.368 41.5 251.581 39.388C251.794 37.276 252.215 35.677 247.019 34.934C247.019 34.934 242.636 34.28 240.054 32.493C238.519 31.4272 236.842 30.583 235.071 29.985C235.071 29.985 233.614 27.273 232.6 28.202C233.01 29.648 233.321 31.12 233.532 32.608C233.503 33.7599 233.61 34.9112 233.851 36.038C234.01 36.306 236.132 48.782 233.973 53.238C233.973 53.238 230.804 65.247 228.55 67.521C226.296 69.795 221.341 54.021 221.341 54.021C221.341 54.021 218.724 39.948 219.148 37.968C219.572 35.988 219.879 28.804 219.879 28.804Z" fill="#2C2E31"/>
<path d="M227.445 75.156C228.305 75.156 229.001 74.4594 229.001 73.6C229.001 72.7407 228.305 72.044 227.445 72.044C226.586 72.044 225.889 72.7407 225.889 73.6C225.889 74.4594 226.586 75.156 227.445 75.156Z" fill="#3F3D56"/>
<path d="M227.445 82.491C228.305 82.491 229.001 81.7944 229.001 80.935C229.001 80.0756 228.305 79.379 227.445 79.379C226.586 79.379 225.889 80.0756 225.889 80.935C225.889 81.7944 226.586 82.491 227.445 82.491Z" fill="#3F3D56"/>
<path d="M227.445 75.156C228.305 75.156 229.001 74.4594 229.001 73.6C229.001 72.7407 228.305 72.044 227.445 72.044C226.586 72.044 225.889 72.7407 225.889 73.6C225.889 74.4594 226.586 75.156 227.445 75.156Z" fill="#2C2E31"/>
<path d="M227.445 82.491C228.305 82.491 229.001 81.7944 229.001 80.935C229.001 80.0756 228.305 79.379 227.445 79.379C226.586 79.379 225.889 80.0756 225.889 80.935C225.889 81.7944 226.586 82.491 227.445 82.491Z" fill="#2C2E31"/>
<path opacity="0.1" d="M235.844 16.863C235.847 17.7105 235.74 18.5548 235.526 19.375C235.317 19.2797 235.142 19.1228 235.025 18.9253C234.907 18.7279 234.853 18.4993 234.868 18.27C234.912 17.87 235.18 17.497 235.122 17.097C235.037 16.48 234.292 16.229 233.898 15.741C233.519 15.0704 233.399 14.2843 233.559 13.531C233.6 12.768 233.407 11.836 232.691 11.575C232.477 11.497 232.244 11.49 232.037 11.402C231.474 11.165 231.302 10.467 230.925 9.98501C230.173 9.01601 228.677 9.036 227.535 9.497C227.038 9.73529 226.529 9.9479 226.01 10.134C225.75 10.2262 225.473 10.2632 225.198 10.2427C224.922 10.2222 224.654 10.1447 224.41 10.015C224.186 9.87301 224.01 9.67602 223.776 9.53402C223.359 9.37177 222.901 9.34163 222.466 9.44768C222.031 9.55374 221.639 9.79085 221.342 10.127C220.762 10.816 220.076 11.4076 219.308 11.879C218.932 12.048 218.467 12.15 218.291 12.516C218.204 12.7154 218.167 12.933 218.182 13.15C218.281 14.4669 218.241 15.7904 218.064 17.099C217.888 17.929 217.305 18.872 216.464 18.77C216.359 18.7544 216.256 18.7283 216.156 18.692C215.903 17.3347 215.935 15.9393 216.251 14.5951C216.567 13.2509 217.16 11.9874 217.992 10.8852C218.823 9.78301 219.876 8.86643 221.082 8.19396C222.288 7.52149 223.621 7.10792 224.996 6.97967C226.371 6.85141 227.757 7.01129 229.067 7.44909C230.377 7.88689 231.581 8.59299 232.602 9.5223C233.623 10.4516 234.439 11.5837 234.999 12.8463C235.558 14.1088 235.848 15.4742 235.849 16.855L235.844 16.863Z" fill="#14171A"/>
<path d="M215.713 18.13C215.967 18.188 216.213 18.32 216.469 18.354C217.313 18.454 217.896 17.514 218.069 16.683C218.252 15.375 218.293 14.0509 218.191 12.734C218.172 12.5172 218.208 12.2991 218.296 12.1C218.489 11.734 218.953 11.632 219.313 11.463C220.077 10.9866 220.763 10.3957 221.347 9.71101C221.641 9.37294 222.033 9.13438 222.468 9.02818C222.904 8.92198 223.361 8.95337 223.778 9.11802C224.005 9.25402 224.188 9.45701 224.412 9.59901C224.657 9.72619 224.925 9.80224 225.2 9.82252C225.475 9.84281 225.751 9.80692 226.012 9.71702C226.53 9.53024 227.038 9.31764 227.534 9.08003C228.666 8.61903 230.164 8.60202 230.924 9.56502C231.3 10.05 231.473 10.744 232.036 10.982C232.243 11.07 232.477 11.082 232.69 11.158C233.405 11.426 233.59 12.351 233.557 13.114C233.408 13.8677 233.528 14.6496 233.896 15.324C234.29 15.805 235.035 16.056 235.12 16.68C235.174 17.08 234.91 17.453 234.866 17.853C234.856 18.0017 234.875 18.1509 234.923 18.292C234.971 18.4331 235.047 18.5632 235.146 18.6749C235.244 18.7865 235.364 18.8775 235.498 18.9424C235.633 19.0073 235.778 19.0449 235.927 19.053C236.809 19.053 237.354 18.067 238.178 17.753C238.542 17.6849 238.889 17.5419 239.195 17.333C239.295 17.2042 239.365 17.0553 239.401 16.8966C239.437 16.7379 239.439 16.5733 239.405 16.414C239.239 15.114 238.198 13.987 238.31 12.686C238.415 11.439 239.571 10.351 239.327 9.12404C239.203 8.67163 238.97 8.25631 238.649 7.91401C238.286 7.42165 237.812 7.0213 237.266 6.74504C236.775 6.60446 236.292 6.43755 235.819 6.24504C234.538 5.54504 234.541 3.71302 233.785 2.46602C233.461 1.95059 233.001 1.53437 232.455 1.26292C231.91 0.991472 231.301 0.875252 230.694 0.927015C229.741 1.02201 228.877 1.52703 227.935 1.69703C226.623 1.82783 225.299 1.59317 224.112 1.01903C222.93 0.446172 221.65 0.101159 220.34 0.00202708C219.685 -0.0360407 219.033 0.127317 218.473 0.470167C217.914 0.813017 217.472 1.31894 217.208 1.92003C216.998 2.59803 217.103 3.32002 216.94 4.00502C216.738 4.59283 216.418 5.13308 215.999 5.59245C215.581 6.05183 215.073 6.42062 214.506 6.67604C213.764 7.08904 212.872 7.56403 212.784 8.40803C212.808 8.94508 212.953 9.46978 213.208 9.94304C213.526 10.8204 213.518 11.7824 213.188 12.655C212.941 13.296 212.527 13.855 212.276 14.496C212.098 14.9283 212.013 15.3936 212.029 15.861C212.044 16.3284 212.158 16.7872 212.364 17.207C212.522 17.5132 212.741 17.7839 213.007 18.0025C213.274 18.221 213.582 18.3828 213.913 18.478C214.581 18.635 215.002 17.974 215.713 18.13Z" fill="#2C2E31"/>
<g opacity="0.1">
<path opacity="0.1" d="M218.073 15.945C217.897 16.775 217.31 17.718 216.466 17.616C216.205 17.582 215.966 17.45 215.71 17.392C215.001 17.236 214.581 17.9 213.91 17.731C213.579 17.636 213.27 17.4742 213.003 17.2557C212.736 17.0371 212.516 16.7664 212.357 16.46C212.18 16.1151 212.073 15.7385 212.042 15.352C211.975 15.9523 212.084 16.5591 212.357 17.098C212.516 17.4044 212.736 17.6752 213.003 17.8937C213.27 18.1123 213.579 18.274 213.91 18.369C214.588 18.525 214.998 17.86 215.71 18.03C215.958 18.1163 216.211 18.1898 216.466 18.25C217.31 18.355 217.896 17.413 218.073 16.582C218.212 15.8483 218.267 15.1011 218.236 14.355C218.233 14.889 218.178 15.4214 218.073 15.945Z" fill="#14171A"/>
<path opacity="0.1" d="M213.429 10.84C213.473 10.2847 213.397 9.72648 213.206 9.203C213.053 8.85495 212.923 8.4972 212.816 8.13202C212.802 8.18903 212.79 8.24678 212.782 8.30502C212.808 8.84178 212.953 9.36606 213.206 9.84C213.324 10.1621 213.4 10.4983 213.43 10.84H213.429Z" fill="#14171A"/>
<path opacity="0.1" d="M239.325 9.05405C239.166 10.017 238.386 10.922 238.308 11.935C238.29 12.1085 238.29 12.2835 238.308 12.457C238.478 11.274 239.525 10.224 239.325 9.05405Z" fill="#14171A"/>
<path opacity="0.1" d="M239.382 16.206C239.354 16.3478 239.287 16.4791 239.19 16.586C238.939 16.854 238.512 16.874 238.173 17.006C237.35 17.321 236.817 18.318 235.923 18.306C235.693 18.2931 235.474 18.2112 235.292 18.0708C235.11 17.9305 234.976 17.7385 234.906 17.52C234.885 17.5935 234.869 17.6684 234.858 17.744C234.848 17.8927 234.867 18.0418 234.915 18.1829C234.963 18.3239 235.039 18.454 235.137 18.5656C235.236 18.6772 235.356 18.7681 235.49 18.8331C235.624 18.898 235.77 18.9357 235.919 18.944C236.804 18.944 237.346 17.958 238.169 17.644C238.508 17.512 238.922 17.491 239.186 17.224C239.285 17.0952 239.355 16.9463 239.392 16.7876C239.428 16.6289 239.429 16.4642 239.395 16.305C239.392 16.264 239.386 16.236 239.382 16.206Z" fill="#14171A"/>
<path opacity="0.1" d="M235.133 15.924C235.048 15.307 234.303 15.056 233.91 14.568C233.669 14.2474 233.538 13.8573 233.537 13.456C233.441 14.0651 233.574 14.688 233.91 15.205C234.3 15.68 234.893 15.883 235.083 16.371C235.131 16.2271 235.148 16.0749 235.133 15.924Z" fill="#14171A"/>
<path opacity="0.1" d="M233.556 12.376C233.583 11.613 233.4 10.681 232.685 10.42C232.474 10.342 232.241 10.332 232.034 10.247C231.471 10.01 231.295 9.31103 230.922 8.83003C230.166 7.86403 228.671 7.88103 227.532 8.34203C227.023 8.54903 226.539 8.82305 226.01 8.97905C225.75 9.07116 225.473 9.10815 225.198 9.08766C224.922 9.06718 224.654 8.98965 224.41 8.86003C224.186 8.71803 224.003 8.52104 223.776 8.37904C223.359 8.21651 222.901 8.18621 222.466 8.29228C222.031 8.39835 221.638 8.63564 221.342 8.97203C220.763 9.6611 220.076 10.2526 219.308 10.724C218.928 10.894 218.468 10.995 218.271 11.361C218.187 11.5611 218.153 11.7787 218.171 11.995V12.395C218.177 12.2585 218.211 12.1245 218.271 12.002C218.471 11.636 218.929 11.534 219.309 11.365C220.073 10.8888 220.759 10.2979 221.342 9.61302C221.637 9.27469 222.029 9.03602 222.465 8.92982C222.901 8.82363 223.359 8.85514 223.776 9.02003C224.003 9.15603 224.186 9.35903 224.41 9.49803C224.654 9.62841 224.922 9.70636 225.198 9.72685C225.473 9.74735 225.75 9.70996 226.01 9.61705C226.529 9.43259 227.037 9.22097 227.532 8.98305C228.667 8.52205 230.162 8.50203 230.922 9.46803C231.295 9.94903 231.471 10.647 232.034 10.885C232.241 10.973 232.474 10.9851 232.685 11.0611C232.957 11.2056 233.183 11.4245 233.335 11.6922C233.488 11.9599 233.561 12.2653 233.546 12.573L233.556 12.376Z" fill="#14171A"/>
</g>
<g opacity="0.1">
<path opacity="0.1" d="M216.864 15.924C216.884 15.3615 217.085 14.8205 217.439 14.3823C217.792 13.9442 218.278 13.6325 218.823 13.494C220.335 13.1246 221.92 13.1965 223.392 13.701C226.609 14.765 222.985 18.596 222.985 18.596C222.985 18.596 220.575 20.969 218.328 19.311C217.664 18.8094 217.2 18.0888 217.016 17.277C216.906 16.8347 216.855 16.3797 216.864 15.924Z" fill="#14171A"/>
<path opacity="0.1" d="M234.546 15.924C234.527 15.3611 234.325 14.8198 233.971 14.3816C233.617 13.9434 233.13 13.6319 232.584 13.494C231.074 13.1252 229.489 13.1971 228.018 13.701C224.801 14.765 228.425 18.595 228.425 18.595C228.425 18.595 230.831 20.968 233.082 19.31C233.746 18.8083 234.211 18.0877 234.394 17.276C234.504 16.834 234.555 16.3794 234.546 15.924Z" fill="#14171A"/>
<path opacity="0.1" d="M222.783 13.388V13.547H228.657V13.357L222.783 13.388Z" fill="#14171A"/>
<path opacity="0.1" d="M224.659 15.087H224.845V14.548C225.084 14.4045 225.358 14.3286 225.638 14.3286C225.917 14.3286 226.191 14.4045 226.431 14.548V15.029H226.77V14.714H226.604C226.604 14.714 226.672 14.06 225.567 14.165C225.567 14.165 224.679 14.08 224.699 14.643H224.499L224.659 15.087Z" fill="#14171A"/>
</g>
<path d="M216.865 15.704C216.885 15.1415 217.086 14.6005 217.44 14.1623C217.793 13.7241 218.279 13.4125 218.824 13.274C220.336 12.9071 221.921 12.9789 223.393 13.481C226.609 14.549 222.986 18.375 222.986 18.375C222.986 18.375 220.576 20.748 218.329 19.09C217.664 18.5896 217.199 17.8685 217.017 17.056C216.907 16.614 216.856 16.1594 216.865 15.704Z" fill="#ED2227"/>
<path d="M234.546 15.704C234.527 15.1411 234.325 14.5998 233.971 14.1616C233.617 13.7234 233.13 13.4119 232.584 13.274C231.074 12.907 229.49 12.9789 228.018 13.481C224.801 14.549 228.425 18.375 228.425 18.375C228.425 18.375 230.831 20.748 233.082 19.09C233.748 18.5896 234.213 17.8685 234.394 17.056C234.505 16.614 234.556 16.1594 234.546 15.704Z" fill="#ED2227"/>
<path d="M222.784 13.174V13.337H228.658V13.144L222.784 13.174Z" fill="#ED2227"/>
<path d="M224.659 14.873H224.845V14.334C225.085 14.1915 225.359 14.1163 225.638 14.1163C225.917 14.1163 226.191 14.1915 226.431 14.334V14.819H226.77V14.5H226.604C226.604 14.5 226.672 13.849 225.567 13.951C225.567 13.951 224.679 13.87 224.699 14.429H224.499L224.659 14.873Z" fill="#ED2227"/>
<path d="M192.548 137.131L89.8482 142.234L86.9173 89.2144L89.6416 86.6634L92.4795 88.938L95.692 86.6667L99.3552 88.5996L102.753 86.6662L106.386 88.2502L109.594 86.6661L112.371 87.9466L115.572 86.1566L118.713 87.6322L122.791 86.1567L125.854 87.277L129.348 86.1556L189.624 84.1082L192.548 137.131Z" fill="#FAFAFA"/>
<path d="M97.6201 89.919L175.433 85.8686L175.747 91.8876C175.802 92.9474 175.434 93.9857 174.723 94.7741C174.013 95.5625 173.018 96.0365 171.959 96.0916L102.137 99.726C101.078 99.7811 100.039 99.413 99.2509 98.7026C98.4625 97.9922 97.9886 96.9978 97.9334 95.938L97.6201 89.919Z" fill="#E5E9EC"/>
<path d="M188.775 92.956L132.896 87.3398L129.074 84.694L125.811 85.4866L122.851 83.981L118.937 85.4855L115.924 83.3385L112.231 84.6873L109.368 82.7252L106.244 84.6853L103.454 82.0658L99.3684 83.9708L96.5072 81.376L92.9811 83.329L90.2857 80.4408L86.8854 82.7169C86.8854 82.7169 94.3623 15.345 94.3718 15.1588C94.8003 10.0217 97.1765 6.40008 103.233 6.66189L185.339 14.924L196.016 27.6155L188.775 92.956Z" fill="#FAFAFA"/>
<path d="M185.255 14.9939L183.429 28.606L196.069 27.8811L185.255 14.9939Z" fill="#E5E9EC"/>
<path d="M146 53.959C155.941 53.959 164 45.9001 164 35.959C164 26.0179 155.941 17.959 146 17.959C136.059 17.959 128 26.0179 128 35.959C128 45.9001 136.059 53.959 146 53.959Z" fill="#E5E9EC"/>
<path d="M162.506 58.9709L123.182 54.1424C122.357 54.0411 121.606 54.6278 121.505 55.4528L121.504 55.4538C121.403 56.2788 121.99 57.0297 122.815 57.131L162.139 61.9594C162.964 62.0607 163.715 61.474 163.817 60.649L163.817 60.6481C163.918 59.8231 163.331 59.0722 162.506 58.9709Z" fill="#E5E9EC"/>
<path d="M177.689 67.44L108.319 58.9225C106.127 58.6532 104.131 60.2125 103.862 62.4052L103.127 68.3853C102.858 70.5779 104.417 72.5737 106.61 72.8429L175.98 81.3605C178.173 81.6297 180.169 80.0705 180.438 77.8778L181.172 71.8977C181.441 69.705 179.882 67.7093 177.689 67.44Z" fill="#E5E9EC"/>
<path d="M174.228 119.335L104.407 122.969C102.2 123.084 100.504 124.966 100.619 127.173L100.932 133.192C101.047 135.399 102.93 137.095 105.136 136.98L174.958 133.346C177.164 133.231 178.86 131.349 178.746 129.142L178.432 123.123C178.317 120.916 176.435 119.22 174.228 119.335Z" fill="#E5E9EC"/>
<path d="M173.228 101.253L103.407 104.887C101.2 105.002 99.5043 106.884 99.6191 109.091L99.9324 115.11C100.047 117.317 101.93 119.013 104.136 118.898L173.958 115.264C176.164 115.149 177.86 113.267 177.746 111.06L177.432 105.041C177.317 102.834 175.435 101.138 173.228 101.253Z" fill="#E5E9EC"/>
<path d="M145.846 38.032C150.242 38.4959 154.182 35.3082 154.646 30.912C155.11 26.5158 151.922 22.5759 147.526 22.112C143.13 21.6481 139.19 24.8358 138.726 29.232C138.262 33.6282 141.45 37.5681 145.846 38.032Z" fill="#F2F4F6"/>
<path fill-rule="evenodd" clip-rule="evenodd" d="M159.105 48.2986C155.822 51.7834 151.165 53.959 146 53.959C139.514 53.959 133.829 50.5282 130.661 45.3823C134.373 41.5557 139.823 39.4086 145.636 40.022C151.409 40.6312 156.265 43.8292 159.105 48.2986Z" fill="#F2F4F6"/>
<path d="M66.7751 74.3371L69.9258 69.6661L83.0336 82.3174L66.7751 74.3371Z" fill="#ED2227"/>
<path d="M79.7533 66.9785L82.1192 66.2098L83.2416 74.1767L79.7533 66.9785Z" fill="#ED2227"/>
<path d="M66.6328 89.7497L66.1144 86.0609L78.152 86.4785L66.6328 89.7497Z" fill="#ED2227"/>
<path d="M137.948 81.2586L139.115 83.5473L131.175 85.9787L137.948 81.2586Z" fill="#ED2227"/>
<path d="M138.012 88.0588L137.797 89.1694L134.378 87.8566L138.012 88.0588Z" fill="#ED2227"/>
<path d="M131.836 77.7945L133.421 78.4026L130.592 83.1124L131.836 77.7945Z" fill="#ED2227"/>
<path d="M194.651 122.406C193.907 124.666 192.457 126.627 190.515 128.001C189.405 125.871 189.137 123.401 189.765 121.083C190.393 118.765 191.871 116.768 193.904 115.489C194.888 117.655 195.149 120.08 194.651 122.406Z" fill="#ED2227"/>
<path d="M186.148 122.406C186.891 124.666 188.341 126.627 190.284 128.001C191.394 125.872 191.662 123.402 191.035 121.084C190.408 118.766 188.931 116.769 186.899 115.49C185.914 117.655 185.651 120.08 186.148 122.406Z" fill="#ED2227"/>
<path d="M187.521 121.663C189.134 123.411 190.143 125.632 190.399 127.997C187.998 127.932 185.71 126.965 183.99 125.29C182.269 123.615 181.242 121.354 181.112 118.956C183.483 119.148 185.73 120.097 187.521 121.663Z" fill="#2C2E31"/>
<path d="M193.278 121.663C191.665 123.411 190.656 125.632 190.4 127.997C192.8 127.932 195.088 126.965 196.809 125.29C198.53 123.615 199.557 121.354 199.687 118.956C197.316 119.148 195.069 120.097 193.278 121.663Z" fill="#2C2E31"/>
</g>
<defs>
<clipPath id="clip0_193_5640">
<rect width="263" height="148" rx="8" fill="white"/>
</clipPath>
</defs>
</svg>
