<svg width="72" height="24" viewBox="0 0 72 24" fill="none" xmlns="http://www.w3.org/2000/svg">
<path d="M0 8C0 3.58172 3.58172 0 8 0H72V16C72 20.4183 68.4183 24 64 24H0V8Z" fill="white"/>
<g clip-path="url(#clip0_0_464)">
<path d="M15.031 8.7085L14.2745 8.27C14.2517 8.25684 14.2258 8.24991 14.1995 8.24991C14.1732 8.24991 14.1473 8.25684 14.1245 8.27L13.368 8.7085C13.3452 8.72157 13.3262 8.74042 13.3129 8.76315C13.2997 8.78588 13.2926 8.81169 13.2925 8.83801V15.161C13.2925 15.1872 13.2994 15.213 13.3125 15.2357C13.3256 15.2584 13.3444 15.2773 13.367 15.2905L14.1235 15.729C14.1463 15.7422 14.1722 15.7491 14.1985 15.7491C14.2248 15.7491 14.2507 15.7422 14.2735 15.729L15.03 15.2905C15.0527 15.2773 15.0715 15.2584 15.0845 15.2357C15.0976 15.213 15.1045 15.1872 15.1045 15.161V8.83801C15.1045 8.81179 15.0976 8.78604 15.0845 8.76332C15.0715 8.7406 15.0527 8.7217 15.03 8.7085" fill="#ED2227"/>
<path d="M29.4225 8.7085L28.6655 8.27C28.6427 8.25684 28.6168 8.24991 28.5905 8.24991C28.5642 8.24991 28.5383 8.25684 28.5155 8.27L27.759 8.7085C27.7363 8.7217 27.7175 8.7406 27.7045 8.76332C27.6914 8.78604 27.6845 8.81179 27.6845 8.838V12.228L25.08 8.818L25.027 8.7475C25.0147 8.73199 24.9994 8.71907 24.982 8.7095L24.9555 8.6935H24.952L24.226 8.2725C24.2032 8.25934 24.1773 8.25241 24.151 8.25241C24.1247 8.25241 24.0988 8.25934 24.076 8.2725L23.3195 8.711C23.2968 8.7242 23.278 8.7431 23.265 8.76582C23.2519 8.78854 23.245 8.81429 23.245 8.8405V15.1635C23.245 15.1897 23.2519 15.2155 23.265 15.2382C23.278 15.2609 23.2968 15.2798 23.3195 15.293L24.076 15.7315C24.0988 15.7447 24.1247 15.7516 24.151 15.7516C24.1773 15.7516 24.2032 15.7447 24.226 15.7315L24.9825 15.293C25.0051 15.2798 25.0239 15.2609 25.037 15.2382C25.0501 15.2155 25.057 15.1897 25.057 15.1635V11.7765L27.7275 15.273H27.732C27.7406 15.2815 27.7501 15.2888 27.7605 15.295L28.517 15.7335C28.5398 15.7467 28.5657 15.7536 28.592 15.7536C28.6183 15.7536 28.6442 15.7467 28.667 15.7335L29.424 15.295C29.4466 15.2818 29.4654 15.2629 29.4785 15.2402C29.4916 15.2175 29.4985 15.1917 29.4985 15.1655V8.838C29.4985 8.81179 29.4916 8.78604 29.4785 8.76332C29.4654 8.7406 29.4466 8.7217 29.424 8.7085" fill="#ED2227"/>
<path d="M20.5225 12.5381C20.5225 12.9853 20.3448 13.4143 20.0285 13.7306C19.7122 14.0469 19.2832 14.2246 18.8359 14.2246H17.8224V9.77456H18.8369C19.2841 9.77482 19.7128 9.95263 20.0288 10.2689C20.3449 10.5851 20.5225 11.0139 20.5225 11.4611V12.5381ZM19.3369 8.24956H16.9159C16.8896 8.24953 16.8638 8.25643 16.8409 8.26956L16.0844 8.70806C16.0618 8.72125 16.043 8.74015 16.0299 8.76287C16.0169 8.7856 16.01 8.81135 16.0099 8.83756V15.1606C16.01 15.1868 16.0169 15.2125 16.0299 15.2352C16.043 15.258 16.0618 15.2769 16.0844 15.2901L16.8409 15.7286C16.8664 15.7431 16.8956 15.7499 16.9249 15.7481H19.3379C20.1336 15.7481 20.8967 15.432 21.4593 14.8694C22.0219 14.3068 22.3379 13.5437 22.3379 12.7481V11.2476C22.3379 10.4519 22.0219 9.68885 21.4593 9.12624C20.8967 8.56363 20.1336 8.24756 19.3379 8.24756" fill="#ED2227"/>
<path d="M35.0606 9.85451H33.1221V8.83652H38.1221V9.85451H36.1841V15.1595H35.0591L35.0606 9.85451Z" fill="#14171A"/>
<path fill-rule="evenodd" clip-rule="evenodd" d="M39.0385 15.1595H40.1635V8.83652H39.0385V15.1595Z" fill="#14171A"/>
<path d="M41.314 8.83652H43.0285L44.7165 13.266L46.422 8.83652H48.1185V15.16H47.047V9.91002H47.029L45.109 15.16H44.323L42.403 9.91002H42.385V15.16H41.313L41.314 8.83652Z" fill="#14171A"/>
<path d="M49.296 8.83652H53.4844V9.85451H50.421V11.4085H53.3239V12.4265H50.421V14.141H53.6449V15.1595H49.295L49.296 8.83652Z" fill="#14171A"/>
<path d="M57.8509 10.194C57.7334 10.0226 57.567 9.89037 57.3734 9.81455C57.1734 9.73402 56.9596 9.69309 56.7439 9.69405C56.6161 9.69378 56.4887 9.70888 56.3644 9.73905C56.2468 9.76712 56.1349 9.81552 56.0339 9.88205C55.9361 9.94687 55.8551 10.0339 55.7974 10.136C55.7354 10.2497 55.7046 10.3777 55.7079 10.507C55.7025 10.6009 55.72 10.6946 55.759 10.7802C55.7979 10.8657 55.8571 10.9405 55.9314 10.998C56.1008 11.1225 56.2872 11.2219 56.4849 11.293C56.7046 11.3764 56.9457 11.4569 57.2084 11.5345C57.4629 11.6088 57.7062 11.717 57.9319 11.856C58.1538 11.9951 58.3427 12.1809 58.4854 12.4006C58.6463 12.6732 58.724 12.9869 58.7089 13.3031C58.716 13.6098 58.6516 13.914 58.5209 14.1915C58.4024 14.4366 58.2301 14.6518 58.0169 14.821C57.7973 14.9917 57.5472 15.119 57.2799 15.196C56.9928 15.2802 56.6951 15.3221 56.3959 15.3205C56.0094 15.3218 55.6256 15.2554 55.2619 15.1245C54.8959 14.9918 54.572 14.7636 54.3239 14.4635L55.1739 13.642C55.3089 13.8482 55.4951 14.0157 55.7144 14.128C55.9333 14.2433 56.177 14.3032 56.4244 14.3025C56.5572 14.3024 56.6894 14.2844 56.8174 14.249C56.9443 14.2153 57.0649 14.1611 57.1744 14.0885C57.2804 14.0185 57.3691 13.9253 57.4339 13.816C57.5013 13.7011 57.5359 13.5698 57.5339 13.4365C57.5399 13.3361 57.523 13.2357 57.4844 13.1428C57.4457 13.0499 57.3864 12.9671 57.3109 12.9005C57.1448 12.7655 56.9576 12.6586 56.7569 12.584C56.5366 12.4974 56.2956 12.4154 56.0339 12.3381C55.78 12.2643 55.5368 12.1577 55.3104 12.021C55.0883 11.8857 54.899 11.7026 54.7564 11.485C54.5954 11.2144 54.5178 10.9021 54.5334 10.5875C54.5251 10.2916 54.594 9.99868 54.7334 9.73755C54.8639 9.5035 55.0439 9.30078 55.2609 9.14355C55.486 8.98179 55.7386 8.86218 56.0064 8.79055C56.2855 8.71335 56.5738 8.67432 56.8634 8.67455C57.1923 8.67344 57.5193 8.72406 57.8324 8.82455C58.1471 8.92722 58.4352 9.09793 58.6764 9.32455L57.8509 10.194Z" fill="#14171A"/>
</g>
<defs>
<clipPath id="clip0_0_464">
<rect width="45.415" height="16" fill="white" transform="translate(13.2925 4)"/>
</clipPath>
</defs>
</svg>
